<svg width="41" height="41" viewBox="0 0 41 41" fill="none" xmlns="http://www.w3.org/2000/svg">
<path d="M40.5 0.5H41V0H40.5V0.5ZM40.5 40.5V41H41V40.5H40.5ZM6.5 1H40.5V0H6.5V1ZM40.5 40H6.5V41H40.5V40ZM1 34.5V6.5H0V34.5H1ZM40 0.5V20.5H41V0.5H40ZM40 20.5V40.5H41V20.5H40ZM6.5 40C3.46243 40 1 37.5376 1 34.5H0C0 38.0899 2.91015 41 6.5 41V40ZM6.5 0C2.91015 0 0 2.91015 0 6.5H1C1 3.46243 3.46243 1 6.5 1V0Z" fill="#E4E4E7"/>
<g clip-path="url(#clip0_1_360)">
<path d="M19.621 20.5L23.3335 24.2125L22.273 25.273L17.5 20.5L22.273 15.727L23.3335 16.7875L19.621 20.5Z" fill="#4B5563"/>
</g>
<defs>
<clipPath id="clip0_1_360">
<rect width="18" height="18" fill="white" transform="matrix(0 1 -1 0 29.5 11.5)"/>
</clipPath>
</defs>
</svg>
